<?xml version="1.0" standalone="no"?><!DOCTYPE svg PUBLIC "-//W3C//DTD SVG 1.1//EN" "http://www.w3.org/Graphics/SVG/1.1/DTD/svg11.dtd"><svg t="1624505152741" class="icon" viewBox="0 0 1024 1024" version="1.1" xmlns="http://www.w3.org/2000/svg" p-id="2682" width="32" height="32" xmlns:xlink="http://www.w3.org/1999/xlink"><defs><style type="text/css"></style></defs><path d="M562.7904 152.3712a72.1408 72.1408 0 0 0-96.9216 0l-337.3056 348.16v388.4032a72.3456 72.3456 0 0 0 72.2432 72.3968h210.5344v-217.5488a51.2 51.2 0 0 1 50.8416-51.2h99.1232a51.2 51.2 0 0 1 51.2 50.8928v217.8048h215.4496a72.2432 72.2432 0 0 0 72.2944-72.2944v-384c16.0768 14.5408-337.2032-352.9728-337.2032-352.9728z" fill="#1296db" p-id="2683"></path><path d="M947.8656 449.1264l-402.8928-383.6416a40.6528 40.6528 0 0 0-31.488-11.1104 40.6528 40.6528 0 0 0-31.488 11.1104L77.4656 450.56a40.96 40.96 0 1 0 56.32 59.3408L513.4848 148.48l377.9072 359.9872a40.96 40.96 0 0 0 57.9072-1.5872 40.96 40.96 0 0 0-1.4336-57.7536z" fill="#1296db" p-id="2684"></path></svg>